# xmcd
#
# Track frame offsets: 
#        150
#        14559
#        29367
#        42400
#        55396
#        69605
#        83472
#        96894
#        111902
#        128023
#        143465
#        156759
#        172142
#        186644
#        200445
#        215933
#        230158
#        246618
#        262588
#        276288
#
# Disc length: 3890 seconds
#
# Revision: 0
# Processed by: cddbd v1.5.2PL0 Copyright (c) Steve Scherf et al.
# Submitted via: ExactAudioCopyFreeDBPlugin 1.0
#
DISCID=310f3014
DTITLE=Holiday, Billie - The One and Only Lady Day - Disc 2
DYEAR=2006
DGENRE=Blues
TTITLE0=Strange Fruit
TTITLE1=Fine And Mellow
TTITLE2=I Gotta Right To Sing The Blues
TTITLE3=Them There Eyes
TTITLE4=The Man I Love
TTITLE5=All Of Me
TTITLE6=God Bless The Child 
TTITLE7=Trav'lin' Light
TTITLE8=I Cover The Waterfront
TTITLE9=Lover Man
TTITLE10=That Old Devil Called Love
TTITLE11=Don't Explain
TTITLE12=Good Morning Heartache
TTITLE13=There Is No Greater Love
TTITLE14=Ain't Nobody's Business If I Do
TTITLE15=Crazy He Calls Me
TTITLE16=These Foolish Things
TTITLE17=Solitude
TTITLE18=Love For Sale
TTITLE19=Tenderly
EXTD=
EXTT0=
EXTT1=
EXTT2=
EXTT3=
EXTT4=
EXTT5=
EXTT6=
EXTT7=
EXTT8=
EXTT9=
EXTT10=
EXTT11=
EXTT12=
EXTT13=
EXTT14=
EXTT15=
EXTT16=
EXTT17=
EXTT18=
EXTT19=
PLAYORDER=
